<svg xmlns="http://www.w3.org/2000/svg" xmlns:xlink="http://www.w3.org/1999/xlink" width="1080" zoomAndPan="magnify" viewBox="0 0 810 809.999993" height="1080" preserveAspectRatio="xMidYMid meet" version="1.0"><defs><clipPath id="94c48cf9bc"><path d="M 1.5 45 L 810 45 L 810 709 L 1.5 709 Z M 1.5 45 " clip-rule="nonzero"/></clipPath></defs><g clip-path="url(#94c48cf9bc)"><path fill="#ff3131" d="M 406.5 90.265625 C 356.632812 47.386719 284.34375 41.007812 218.53125 47.585938 C 141.882812 55.332031 64.527344 81.609375 16.332031 103.527344 C 15.234375 104.027344 14.175781 104.605469 13.15625 105.257812 C 12.140625 105.90625 11.175781 106.628906 10.261719 107.417969 C 9.347656 108.210938 8.492188 109.058594 7.699219 109.972656 C 6.90625 110.886719 6.183594 111.847656 5.53125 112.863281 C 4.875 113.882812 4.296875 114.9375 3.796875 116.035156 C 3.292969 117.136719 2.871094 118.265625 2.53125 119.421875 C 2.1875 120.582031 1.933594 121.761719 1.757812 122.957031 C 1.585938 124.152344 1.5 125.355469 1.5 126.5625 L 1.5 683.4375 C 1.5 683.964844 1.515625 684.492188 1.550781 685.015625 C 1.582031 685.542969 1.632812 686.066406 1.699219 686.589844 C 1.761719 687.113281 1.84375 687.632812 1.945312 688.148438 C 2.042969 688.667969 2.15625 689.179688 2.285156 689.691406 C 2.417969 690.203125 2.5625 690.707031 2.726562 691.210938 C 2.886719 691.710938 3.0625 692.207031 3.257812 692.695312 C 3.449219 693.1875 3.65625 693.671875 3.882812 694.148438 C 4.105469 694.625 4.339844 695.09375 4.59375 695.558594 C 4.847656 696.019531 5.113281 696.472656 5.394531 696.917969 C 5.675781 697.367188 5.96875 697.800781 6.277344 698.230469 C 6.585938 698.65625 6.90625 699.074219 7.238281 699.480469 C 7.574219 699.890625 7.921875 700.285156 8.28125 700.671875 C 8.636719 701.058594 9.007812 701.429688 9.390625 701.792969 C 9.773438 702.15625 10.167969 702.507812 10.570312 702.84375 C 10.972656 703.183594 11.386719 703.507812 11.8125 703.820312 C 12.238281 704.132812 12.671875 704.429688 13.113281 704.714844 C 13.558594 705 14.007812 705.273438 14.46875 705.527344 C 14.929688 705.785156 15.394531 706.027344 15.871094 706.253906 C 16.347656 706.484375 16.828125 706.695312 17.316406 706.894531 C 17.804688 707.089844 18.296875 707.273438 18.796875 707.441406 C 19.296875 707.605469 19.800781 707.757812 20.3125 707.894531 C 20.820312 708.027344 21.332031 708.148438 21.851562 708.25 C 22.367188 708.355469 22.886719 708.441406 23.40625 708.511719 C 23.929688 708.582031 24.453125 708.636719 24.980469 708.675781 C 25.503906 708.714844 26.03125 708.734375 26.558594 708.742188 C 27.085938 708.746094 27.609375 708.734375 28.136719 708.707031 C 28.664062 708.679688 29.1875 708.636719 29.710938 708.578125 C 30.234375 708.515625 30.753906 708.441406 31.273438 708.347656 C 31.792969 708.253906 32.308594 708.144531 32.820312 708.019531 C 33.332031 707.894531 33.839844 707.753906 34.339844 707.597656 C 34.84375 707.441406 35.34375 707.269531 35.835938 707.082031 C 36.328125 706.894531 36.8125 706.691406 37.292969 706.472656 C 81.941406 686.222656 153.882812 661.871094 223.59375 654.835938 C 294.921875 647.644531 354.710938 659.238281 386.757812 699.234375 C 387.347656 699.96875 387.976562 700.671875 388.648438 701.335938 C 389.316406 702.003906 390.023438 702.628906 390.761719 703.21875 C 391.5 703.804688 392.273438 704.347656 393.074219 704.851562 C 393.871094 705.351562 394.699219 705.804688 395.550781 706.214844 C 396.402344 706.621094 397.273438 706.984375 398.167969 707.292969 C 399.058594 707.605469 399.964844 707.863281 400.886719 708.074219 C 401.804688 708.285156 402.738281 708.441406 403.675781 708.546875 C 404.613281 708.652344 405.554688 708.703125 406.5 708.703125 C 407.445312 708.703125 408.386719 708.652344 409.324219 708.546875 C 410.261719 708.441406 411.195312 708.285156 412.113281 708.074219 C 413.035156 707.863281 413.941406 707.605469 414.832031 707.292969 C 415.726562 706.984375 416.597656 706.621094 417.449219 706.214844 C 418.300781 705.804688 419.128906 705.351562 419.929688 704.851562 C 420.726562 704.347656 421.5 703.804688 422.238281 703.21875 C 422.976562 702.628906 423.683594 702.003906 424.351562 701.335938 C 425.023438 700.671875 425.652344 699.96875 426.242188 699.234375 C 458.289062 659.238281 518.078125 647.644531 589.359375 654.835938 C 659.117188 661.871094 731.109375 686.222656 775.707031 706.472656 C 776.1875 706.691406 776.671875 706.894531 777.164062 707.082031 C 777.65625 707.269531 778.15625 707.441406 778.660156 707.597656 C 779.160156 707.753906 779.667969 707.894531 780.179688 708.019531 C 780.691406 708.144531 781.207031 708.253906 781.726562 708.347656 C 782.246094 708.441406 782.765625 708.515625 783.289062 708.578125 C 783.8125 708.636719 784.335938 708.679688 784.863281 708.707031 C 785.390625 708.734375 785.914062 708.746094 786.441406 708.742188 C 786.96875 708.734375 787.496094 708.714844 788.019531 708.675781 C 788.546875 708.636719 789.070312 708.582031 789.59375 708.511719 C 790.113281 708.441406 790.632812 708.355469 791.148438 708.25 C 791.667969 708.148438 792.179688 708.027344 792.6875 707.894531 C 793.199219 707.757812 793.703125 707.605469 794.203125 707.441406 C 794.703125 707.273438 795.195312 707.089844 795.683594 706.894531 C 796.171875 706.695312 796.652344 706.484375 797.128906 706.253906 C 797.605469 706.027344 798.070312 705.785156 798.53125 705.527344 C 798.992188 705.273438 799.441406 705 799.886719 704.714844 C 800.328125 704.429688 800.761719 704.132812 801.1875 703.820312 C 801.613281 703.507812 802.027344 703.183594 802.429688 702.84375 C 802.832031 702.507812 803.226562 702.15625 803.609375 701.792969 C 803.992188 701.429688 804.363281 701.058594 804.71875 700.671875 C 805.078125 700.285156 805.425781 699.890625 805.761719 699.480469 C 806.09375 699.074219 806.414062 698.65625 806.722656 698.230469 C 807.03125 697.800781 807.324219 697.367188 807.605469 696.917969 C 807.886719 696.472656 808.152344 696.019531 808.40625 695.558594 C 808.660156 695.09375 808.894531 694.625 809.117188 694.148438 C 809.34375 693.671875 809.550781 693.1875 809.742188 692.695312 C 809.9375 692.207031 810.113281 691.710938 810.273438 691.210938 C 810.4375 690.707031 810.582031 690.203125 810.714844 689.691406 C 810.84375 689.179688 810.957031 688.667969 811.054688 688.148438 C 811.15625 687.632812 811.234375 687.113281 811.300781 686.589844 C 811.367188 686.066406 811.417969 685.542969 811.449219 685.015625 C 811.484375 684.492188 811.5 683.964844 811.5 683.4375 L 811.5 126.5625 C 811.5 125.355469 811.414062 124.152344 811.242188 122.957031 C 811.066406 121.761719 810.8125 120.582031 810.46875 119.421875 C 810.128906 118.265625 809.707031 117.136719 809.203125 116.035156 C 808.703125 114.9375 808.125 113.882812 807.46875 112.863281 C 806.816406 111.847656 806.09375 110.886719 805.300781 109.972656 C 804.507812 109.058594 803.652344 108.210938 802.738281 107.417969 C 801.824219 106.628906 800.859375 105.90625 799.84375 105.257812 C 798.824219 104.605469 797.765625 104.027344 796.667969 103.527344 C 748.472656 81.609375 671.117188 55.332031 594.46875 47.585938 C 528.65625 40.957031 456.367188 47.386719 406.5 90.265625 " fill-opacity="1" fill-rule="nonzero"/></g></svg>